<svg
                  width="338"
                  height="90"
                  viewBox="0 0 271 72"
                  fill="none"
                  xmlns="http://www.w3.org/2000/svg"
                >
                  <path
                    d="M43.4964 24.2545V1.23518H53.4498V70.4549H43.4964V33.067H36.3818C35.7125 39.1935 33.7812 43.9591 30.5877 47.3592C27.3941 50.7593 23.3023 52.4616 18.3077 52.4571C14.8896 52.529 11.5299 51.5454 8.69121 49.6364C5.93338 47.759 3.79538 45.0281 2.27723 41.4483C0.759077 37.8685 0 33.606 0 28.6608C0 23.7155 0.759077 19.453 2.27723 15.8777C3.79538 12.3024 5.93338 9.57155 8.69121 7.68509C11.5299 5.78066 14.8896 4.79701 18.3077 4.86887C23.2529 4.86887 27.3357 6.58016 30.5562 10.0027C33.7767 13.4253 35.717 18.1774 36.3818 24.2545H43.4964ZM24.5285 40.02C25.9973 37.5451 26.7339 33.7587 26.7294 28.6608C26.7249 23.5628 25.9793 19.7764 24.4836 17.3061C22.9879 14.8312 20.9263 13.596 18.3032 13.596C15.6801 13.596 13.623 14.8312 12.1273 17.3061C10.6316 19.7764 9.88147 23.5628 9.88147 28.6608C9.88147 33.7587 10.6136 37.5451 12.0823 40.02C13.5511 42.4903 15.6262 43.7255 18.2987 43.7255C20.9712 43.7255 23.0508 42.4903 24.5285 40.02ZM58.6376 72V0H68.8334V72H58.6376Z"
                    fill="#FF385C"
                  ></path>
                  <path
                    d="M125.948 0H136.84V72H125.948V32.5999H114.359C113.578 38.6815 111.39 43.4336 107.797 46.8561C104.204 50.2787 99.7483 51.99 94.4348 51.9945C86.8755 52.1832 79.9405 47.8084 76.8592 40.9048C75.13 37.3295 74.2631 33.0939 74.2676 28.1981C74.2721 23.3023 75.1345 19.0668 76.8592 15.4915C79.9405 8.5879 86.871 4.2131 94.4303 4.40175C99.7304 4.40175 104.186 6.11304 107.793 9.54011C111.399 12.9672 113.591 17.7193 114.359 23.8054H125.948V0ZM101.612 39.5259C103.315 37.0286 104.168 33.2556 104.164 28.2071C104.159 23.1586 103.297 19.3857 101.576 16.8883C100.013 14.4764 97.3049 13.057 94.4303 13.1424C91.5647 13.0525 88.8652 14.4719 87.3201 16.8883C85.6223 19.3901 84.7734 23.1631 84.7734 28.2071C84.7734 33.2512 85.6223 37.0241 87.3201 39.5259C90.051 43.474 95.4678 44.4576 99.4115 41.7268C100.274 41.1294 101.019 40.3838 101.612 39.5259Z"
                    fill="#FF385C"
                  ></path>
                  <path
                    d="M194.263 0H205.155V72H194.263V34.3022H173.328C170.48 39.0273 166.865 43.2449 162.629 46.7798C158.174 50.5617 152.703 54.0517 146.212 57.2452L141.42 48.9043C152.083 44.1657 159.759 37.9853 164.444 30.3631C161.201 30.664 157.572 30.8122 153.552 30.8122H142.426V22.1704H155.946C160.051 22.2064 164.152 22.0042 168.23 21.5596C168.863 19.1027 169.277 16.5919 169.465 14.0586H146.132V5.48422H180.268C180.371 12.8504 179.419 19.5204 177.411 25.4942H194.25L194.263 0Z"
                    fill="#222222"
                  ></path>
                  <path
                    d="M259.443 23.9491V0H270.34V72H259.443V32.7571H246.234V51.6217H210.854V4.55895H221.512V20.4726H235.575V4.55895H246.234V23.9491H259.443ZM222.41 29.1234V42.953H236.473V29.1234H222.41Z"
                    fill="#222222"
                  ></path>
                </svg>