<svg viewBox="0 0 32 32" xmlns="http://www.w3.org/2000/svg" aria-hidden="true" role="presentation" focusable="false" style="display: block; height: 20px; width: 20px; fill: currentcolor;"><path d="m22 1c2.6887547 0 4.8818181 2.12230671 4.9953805 4.78311038l.0046195.21688962v20c0 2.6887547-2.1223067 4.8818181-4.7831104 4.9953805l-.2168896.0046195h-12c-2.6887547 0-4.88181811-2.1223067-4.99538049-4.7831104l-.00461951-.2168896v-20c0-2.6887547 2.12230671-4.88181811 4.78311038-4.99538049l.21688962-.00461951zm0 2h-12c-1.59768088 0-2.90366088 1.24891996-2.99490731 2.82372721l-.00509269.17627279v20c0 1.5976809 1.24891996 2.9036609 2.82372721 2.9949073l.17627279.0050927h12c1.5976809 0 2.9036609-1.24892 2.9949073-2.8237272l.0050927-.1762728v-20c0-1.59768088-1.24892-2.90366088-2.8237272-2.99490731zm-6 22c.5522847 0 1 .4477153 1 1s-.4477153 1-1 1-1-.4477153-1-1 .4477153-1 1-1zm4-4c.5522847 0 1 .4477153 1 1s-.4477153 1-1 1-1-.4477153-1-1 .4477153-1 1-1zm-4 0c.5522847 0 1 .4477153 1 1s-.4477153 1-1 1-1-.4477153-1-1 .4477153-1 1-1zm-4 0c.5522847 0 1 .4477153 1 1s-.4477153 1-1 1-1-.4477153-1-1 .4477153-1 1-1zm8-4c.5522847 0 1 .4477153 1 1s-.4477153 1-1 1-1-.4477153-1-1 .4477153-1 1-1zm-4 0c.5522847 0 1 .4477153 1 1s-.4477153 1-1 1-1-.4477153-1-1 .4477153-1 1-1zm-4 0c.5522847 0 1 .4477153 1 1s-.4477153 1-1 1-1-.4477153-1-1 .4477153-1 1-1zm8-4c.5522847 0 1 .4477153 1 1s-.4477153 1-1 1-1-.4477153-1-1 .4477153-1 1-1zm-4 0c.5522847 0 1 .4477153 1 1s-.4477153 1-1 1-1-.4477153-1-1 .4477153-1 1-1zm-4 0c.5522847 0 1 .4477153 1 1s-.4477153 1-1 1-1-.4477153-1-1 .4477153-1 1-1z"></path></svg>